<svg viewBox="0 0" fill="none" xmlns="http://www.w3.org/2000/svg">
	<g clip-path="url(#logo-___clip0)">
		<path d="M6.495 19.883l19.52-6.518c-.39-2.44-.668-4.07-.99-5.314-.347-1.338-.622-1.696-.73-1.82a3.807 3.807 0 00-1.371-.996c-.152-.065-.578-.216-1.956-.133-1.458.088-3.372.386-6.403.866-3.03.48-4.943.789-6.356 1.155-1.337.347-1.696.623-1.82.731-.43.377-.77.845-.995 1.371-.065.152-.216.578-.133 1.957.088 1.458.386 3.373.866 6.404.134.85.255 1.61.368 2.297z" fill="url(#logo-___paint0_linear)"></path>
		<path fill-rule="evenodd" clip-rule="evenodd" d="M1.113 18.38C.185 12.516-.28 9.584.726 7.23a8.885 8.885 0 012.324-3.2C4.977 2.347 7.908 1.883 13.77.954 19.634.024 22.565-.44 24.92.566a8.882 8.882 0 013.198 2.324c1.684 1.928 2.148 4.86 3.076 10.725.929 5.864 1.393 8.797.387 11.15a8.883 8.883 0 01-2.323 3.2c-1.927 1.684-4.859 2.148-10.722 3.077-5.862.929-8.794 1.393-11.147.387a8.883 8.883 0 01-3.198-2.324c-1.684-1.928-2.148-4.86-3.077-10.725zm10.341 10.414c1.57-.095 3.592-.412 6.585-.886 2.994-.474 5.013-.798 6.537-1.193 1.475-.383 2.155-.756 2.594-1.14a5.711 5.711 0 001.493-2.057c.23-.536.375-1.298.283-2.82-.095-1.57-.412-3.593-.886-6.587-.474-2.994-.797-5.015-1.192-6.538-.383-1.476-.757-2.156-1.14-2.595a5.71 5.71 0 00-2.056-1.494c-.536-.23-1.298-.375-2.82-.283-1.57.095-3.591.412-6.585.886-2.993.475-5.013.798-6.536 1.193-1.476.383-2.155.757-2.594 1.14a5.712 5.712 0 00-1.494 2.057c-.229.536-.374 1.298-.282 2.82.095 1.571.411 3.593.886 6.587.474 2.994.797 5.015 1.192 6.538.383 1.476.756 2.156 1.14 2.595a5.711 5.711 0 002.056 1.494c.536.23 1.297.375 2.82.283z" fill="url(#logo-___paint1_linear)"></path>
	</g>
	<defs>
		<linearGradient id="logo-___paint0_linear" x1="12.69" y1="0" x2="17.769" y2="31.733" gradientUnits="userSpaceOnUse">
			<stop stop-color="#FF7133"></stop>
			<stop offset="1" stop-color="#B30000"></stop>
		</linearGradient>
		<linearGradient id="logo-___paint1_linear" x1="12.69" y1="0" x2="17.769" y2="31.733" gradientUnits="userSpaceOnUse">
			<stop stop-color="#FF7133"></stop>
			<stop offset="1" stop-color="#B30000"></stop>
		</linearGradient>
	</defs>
</svg>
